<svg width="140" height="20" viewBox="0 0 140 20" fill="none" xmlns="http://www.w3.org/2000/svg">
<path d="M131.529 16.6726C131.335 16.6726 131.177 16.5152 131.177 16.3211V15.2577C131.177 15.1271 131.223 15.0006 131.306 14.8998L136.338 8.7991H131.564C131.37 8.7991 131.212 8.64173 131.212 8.44761V7.32283C131.212 7.1287 131.37 6.97133 131.564 6.97133H138.758C138.952 6.97133 139.109 7.1287 139.109 7.32283V8.40856C139.109 8.5398 139.063 8.66691 138.979 8.76787L133.913 14.8682H138.758C138.952 14.8682 139.109 15.0256 139.109 15.2197V16.3211C139.109 16.5152 138.952 16.6726 138.758 16.6726H131.529Z" fill="#242727"/>
<path d="M129.772 6.84335C129.965 6.82896 130.123 6.98785 130.123 7.18198V8.60171C130.123 8.77753 129.984 8.92114 129.809 8.93529C129.102 8.99236 128.584 9.13829 128.061 9.39078C127.463 9.67925 126.998 10.1136 126.678 10.4817V16.3211C126.678 16.5152 126.521 16.6726 126.327 16.6726H124.862C124.668 16.6726 124.511 16.5152 124.511 16.3211V7.32284C124.511 7.12871 124.668 6.97135 124.862 6.97135H126.327C126.521 6.97135 126.678 7.12871 126.678 7.32284V8.52691C127.104 7.98123 127.495 7.67299 128.09 7.33869C128.622 7.04028 129.191 6.88647 129.772 6.84335Z" fill="#242727"/>
<path fill-rule="evenodd" clip-rule="evenodd" d="M117.431 6.72529C118.284 6.72529 119.015 6.93927 119.624 7.36723C119.917 7.56283 120.178 7.79733 120.405 8.0707L120.466 7.29523C120.481 7.11238 120.633 6.97133 120.817 6.97133H122.167C122.361 6.97133 122.519 7.1287 122.519 7.32283V16.3211C122.519 16.5152 122.361 16.6726 122.167 16.6726H120.817C120.633 16.6726 120.481 16.5315 120.466 16.3487L120.406 15.5781C120.178 15.855 119.918 16.0943 119.624 16.2961C119.015 16.7111 118.284 16.9186 117.431 16.9186C116.51 16.9186 115.704 16.7111 115.014 16.2961C114.337 15.8682 113.802 15.2716 113.41 14.5064C113.031 13.7413 112.841 12.8465 112.841 11.8219C112.841 10.7845 113.031 9.88963 113.41 9.13745C113.802 8.3723 114.337 7.78223 115.014 7.36723C115.704 6.93927 116.51 6.72529 117.431 6.72529ZM117.762 8.729C117.243 8.729 116.783 8.85868 116.381 9.11806C115.979 9.37743 115.661 9.74055 115.428 10.2074C115.207 10.6743 115.091 11.2125 115.078 11.822C115.091 12.4315 115.207 12.9697 115.428 13.4366C115.661 13.9035 115.979 14.2731 116.381 14.5454C116.796 14.8048 117.263 14.9345 117.782 14.9345C118.274 14.9345 118.709 14.8048 119.085 14.5454C119.474 14.2731 119.772 13.9035 119.98 13.4366C120.2 12.9697 120.311 12.4315 120.311 11.822C120.311 11.2125 120.2 10.6743 119.98 10.2074C119.772 9.74055 119.474 9.37743 119.085 9.11806C118.709 8.85868 118.268 8.729 117.762 8.729Z" fill="#242727"/>
<path d="M105.905 3.32751C106.099 3.32751 106.256 3.48488 106.256 3.67901V9.93138C106.908 9.00578 107.542 8.39985 108.441 7.85756C109.248 7.37135 110.07 6.97285 111.31 6.8443C111.511 6.82349 111.681 6.98459 111.681 7.1865V8.61052C111.681 8.78272 111.548 8.92448 111.377 8.94977C110.304 9.10919 109.173 9.69529 108.365 10.3122C108.316 10.3498 108.267 10.3882 108.219 10.4272L112.196 16.1574C112.347 16.375 112.191 16.6726 111.927 16.6726H110.271C110.113 16.6726 109.965 16.5923 109.878 16.4594L106.875 11.8408C106.635 12.1718 106.426 12.5188 106.256 12.8722V16.3211C106.256 16.5152 106.099 16.6726 105.905 16.6726H104.44C104.246 16.6726 104.089 16.5152 104.089 16.3211V3.67901C104.089 3.48488 104.246 3.32751 104.44 3.32751H105.905Z" fill="#242727"/>
<path fill-rule="evenodd" clip-rule="evenodd" d="M97.8316 6.72529C98.7 6.72529 99.4841 6.95224 100.184 7.40614C100.884 7.84707 101.435 8.48901 101.836 9.33197C102.197 10.0658 102.401 10.9241 102.448 11.9041C102.46 12.1497 102.259 12.3492 102.013 12.3492H95.1181C95.1523 12.8318 95.2802 13.2591 95.4988 13.6311C95.758 14.059 96.1015 14.3897 96.5292 14.6232C96.9568 14.8566 97.4299 14.9733 97.9483 14.9733C98.5445 14.9733 99.0369 14.8436 99.4257 14.5843C99.7315 14.3701 99.9852 14.1078 100.187 13.7973C100.28 13.6532 100.462 13.5857 100.62 13.6529L101.89 14.1918C102.091 14.2775 102.178 14.518 102.061 14.7033C101.824 15.0778 101.542 15.4142 101.214 15.7125C100.8 16.1016 100.301 16.3999 99.7174 16.6074C99.1471 16.8149 98.4926 16.9186 97.7539 16.9186C96.8078 16.9186 95.9654 16.7046 95.2266 16.2767C94.5009 15.8357 93.9241 15.2327 93.4965 14.4675C93.0817 13.7024 92.8744 12.8205 92.8744 11.8219C92.8744 10.8234 93.0882 9.9415 93.5159 9.17635C93.9436 8.41121 94.5268 7.81465 95.2655 7.38669C96.0172 6.94575 96.8726 6.72529 97.8316 6.72529ZM97.7733 8.59277C97.3845 8.59277 96.9957 8.68355 96.6069 8.86511C96.2181 9.0337 95.8941 9.29307 95.6349 9.64323C95.4215 9.92081 95.2964 10.2643 95.2587 10.6737H100.115C100.081 10.2643 99.9677 9.92081 99.7757 9.64323C99.5424 9.29307 99.2443 9.0337 98.8814 8.86511C98.5315 8.68355 98.1622 8.59277 97.7733 8.59277Z" fill="#242727"/>
<path d="M84.4034 16.6726C84.1834 16.6726 84.005 16.4942 84.005 16.2742V3.72587C84.005 3.50587 84.1834 3.32751 84.4034 3.32751H85.8562C86.0762 3.32751 86.2546 3.50587 86.2546 3.72587V14.6222H92.0074C92.2274 14.6222 92.4057 14.8005 92.4057 15.0205V16.2742C92.4057 16.4942 92.2274 16.6726 92.0074 16.6726H84.4034Z" fill="#242727"/>
<path d="M74.2246 6.97133C74.4141 6.97133 74.585 7.08551 74.6575 7.26063L77.5158 14.1605L80.2895 7.26509C80.3609 7.08761 80.533 6.97134 80.7243 6.97133H82.2706C82.5047 6.97133 82.6635 7.20945 82.5735 7.42553L78.623 16.9108C78.3513 17.5319 78.0731 18.0754 77.7884 18.5412C77.5167 19.0071 77.1737 19.3629 76.7597 19.6088C76.3456 19.8676 75.8174 20 75.1704 20C74.8598 20 74.5081 19.9388 74.1199 19.8223C73.8587 19.7412 73.6038 19.6445 73.3551 19.5321C73.1725 19.4495 73.099 19.2327 73.183 19.0507L73.7093 17.9104C73.7858 17.7447 73.9823 17.6745 74.151 17.744C74.2829 17.7983 74.4084 17.8441 74.5275 17.8813C74.7346 17.9589 74.9028 17.9977 75.0322 17.9977C75.3427 17.9977 75.6015 17.9136 75.8086 17.7454C76.0286 17.5901 76.2032 17.3572 76.3326 17.0467L76.5078 16.6236L72.3898 7.43355C72.2925 7.21651 72.4513 6.97133 72.6892 6.97133H74.2246Z" fill="#242727"/>
<path d="M67.8538 6.72529C68.6299 6.72529 69.2897 6.88053 69.833 7.19102C70.3893 7.5015 70.8097 7.98664 71.0943 8.64642C71.3918 9.29327 71.5406 10.1406 71.5406 11.1885V16.3211C71.5406 16.5152 71.3832 16.6726 71.1891 16.6726H69.7245C69.5304 16.6726 69.373 16.5152 69.373 16.3211V11.6931C69.373 10.9169 69.2794 10.3214 69.0983 9.90741C68.9301 9.48049 68.6817 9.1833 68.3583 9.01512C68.0478 8.84695 67.6791 8.76286 67.2522 8.76285C66.5278 8.74992 65.9626 8.98925 65.5615 9.48085C65.1605 9.97246 64.9559 10.6808 64.9559 11.5993V16.3211C64.9559 16.5152 64.7986 16.6726 64.6044 16.6726H63.1399C62.9458 16.6726 62.7884 16.5152 62.7884 16.3211V7.32283C62.7884 7.1287 62.9458 6.97133 63.1399 6.97133H64.4905C64.6739 6.97134 64.8265 7.11238 64.8409 7.29523L64.9216 8.32018C65.1798 7.89937 65.4974 7.56179 65.8745 7.30745C66.4308 6.91934 67.0905 6.72529 67.8538 6.72529Z" fill="#242727"/>
<path fill-rule="evenodd" clip-rule="evenodd" d="M55.5913 6.72529C56.4442 6.72529 57.1753 6.93927 57.7846 7.36723C58.0781 7.56283 58.3385 7.79733 58.5659 8.0707L58.627 7.29523C58.6414 7.11238 58.794 6.97133 58.9774 6.97133H60.3279C60.5221 6.97133 60.6794 7.1287 60.6794 7.32283V16.3211C60.6794 16.5152 60.5221 16.6726 60.3279 16.6726H58.9774C58.794 16.6726 58.6414 16.5315 58.627 16.3487L58.5663 15.5781C58.3388 15.855 58.0783 16.0943 57.7846 16.2961C57.1753 16.7111 56.4442 16.9186 55.5913 16.9186C54.6706 16.9186 53.8651 16.7111 53.1746 16.2961C52.4977 15.8682 51.9629 15.2716 51.5703 14.5064C51.1912 13.7413 51.0016 12.8465 51.0016 11.8219C51.0016 10.7845 51.1912 9.88963 51.5703 9.13745C51.9629 8.3723 52.4977 7.78223 53.1746 7.36723C53.8651 6.93927 54.6706 6.72529 55.5913 6.72529ZM55.9229 8.729C55.4041 8.729 54.9437 8.85868 54.5417 9.11806C54.1397 9.37743 53.822 9.74055 53.5885 10.2074C53.3681 10.6743 53.2513 11.2125 53.2384 11.822C53.2513 12.4315 53.3681 12.9697 53.5885 13.4366C53.822 13.9035 54.1397 14.2731 54.5417 14.5454C54.9567 14.8048 55.4236 14.9345 55.9423 14.9345C56.4351 14.9345 56.8696 14.8048 57.2457 14.5454C57.6347 14.2731 57.933 13.9035 58.1405 13.4366C58.361 12.9697 58.4712 12.4315 58.4712 11.822C58.4712 11.2125 58.361 10.6743 58.1405 10.2074C57.933 9.74055 57.6347 9.37743 57.2457 9.11806C56.8696 8.85868 56.4286 8.729 55.9229 8.729Z" fill="#242727"/>
<path d="M45.7917 6.72529C46.5678 6.72529 47.2276 6.88053 47.7709 7.19102C48.3272 7.5015 48.7476 7.98664 49.0322 8.64642C49.3297 9.29327 49.4785 10.1406 49.4785 11.1885V16.3211C49.4785 16.5152 49.3211 16.6726 49.127 16.6726H47.6624C47.4683 16.6726 47.3109 16.5152 47.3109 16.3211V11.6931C47.3109 10.9169 47.2173 10.3214 47.0362 9.90741C46.868 9.48049 46.6196 9.1833 46.2962 9.01512C45.9857 8.84695 45.617 8.76286 45.1901 8.76285C44.4657 8.74992 43.9005 8.98925 43.4994 9.48085C43.0984 9.97246 42.8938 10.6808 42.8938 11.5993V16.3211C42.8938 16.5152 42.7365 16.6726 42.5423 16.6726H41.0778C40.8837 16.6726 40.7263 16.5152 40.7263 16.3211V7.32283C40.7263 7.1287 40.8837 6.97133 41.0778 6.97133H42.4284C42.6118 6.97134 42.7644 7.11238 42.7788 7.29523L42.8595 8.32018C43.1177 7.89937 43.4353 7.56179 43.8124 7.30745C44.3687 6.91934 45.0284 6.72529 45.7917 6.72529Z" fill="#242727"/>
<path d="M28.5177 16.6726C28.2977 16.6726 28.1194 16.4942 28.1194 16.2742L28.1194 14.7034C28.1194 14.5452 28.1765 14.3924 28.2802 14.273L35.9688 5.42476H28.5763C28.3563 5.42476 28.178 5.24641 28.178 5.0264V3.72587C28.178 3.50587 28.3563 3.32751 28.5763 3.32751H38.4533C38.6733 3.32751 38.8517 3.50587 38.8517 3.72587V5.29694C38.8517 5.45494 38.7947 5.60763 38.6911 5.72696L31.0129 14.5753H38.3947C38.6147 14.5753 38.7931 14.7537 38.7931 14.9737V16.2742C38.7931 16.4942 38.6147 16.6726 38.3947 16.6726H28.5177Z" fill="#242727"/>
<path fill-rule="evenodd" clip-rule="evenodd" d="M0.909391 5.92366C1.02477 5.57138 1.39031 5.36566 1.75141 5.44981L7.16884 6.71222C7.5509 6.80125 7.92309 6.5308 7.95631 6.13999L8.4226 0.654475C8.45406 0.284384 8.7637 0 9.13521 0H11.978C12.3496 0 12.6592 0.28444 12.6906 0.654572L13.118 5.68978C13.1369 5.91303 13.0046 6.12176 12.795 6.20121C10.6786 7.00375 9.33332 7.58393 7.75526 8.62317C6.73652 9.29407 5.71383 10.0605 4.81233 10.9178C4.6441 11.0778 4.39767 11.1273 4.18343 11.0378L0.439571 9.47368C0.0954219 9.3299 -0.0804166 8.94583 0.0356516 8.59144L0.909391 5.92366ZM15.639 19.8656C15.3391 20.0811 14.9245 20.0328 14.6821 19.7543L11.9903 16.6609C11.8352 16.4826 11.8038 16.2263 11.927 16.0246C12.6181 14.8938 13.7841 13.7135 14.9235 12.8799C15.1202 12.736 15.3953 12.7968 15.5226 13.0047L18.1292 17.261C18.3247 17.5804 18.2407 17.9965 17.9365 18.2151L15.639 19.8656ZM6.03773 19.8724C6.38802 20.1149 6.87071 19.9986 7.08523 19.6306C10.0642 14.52 14.7325 10.7244 20.5676 9.40061C20.9465 9.31464 21.1784 8.92398 21.0574 8.55481L20.1915 5.91304C20.0859 5.59082 19.7679 5.38596 19.4319 5.4323C12.2258 6.42629 6.07714 10.6282 2.58812 16.6321C2.38671 16.9787 2.49326 17.419 2.8229 17.6471L6.03773 19.8724Z" fill="#00A085"/>
</svg>
