<svg width="137" height="20" viewBox="0 0 137 20" fill="none" xmlns="http://www.w3.org/2000/svg">
<path d="M135.7 6.84335C135.894 6.82896 136.052 6.98785 136.052 7.18198V8.60171C136.052 8.77753 135.913 8.92114 135.738 8.93529C135.031 8.99236 134.513 9.13829 133.99 9.39078C133.392 9.67925 132.927 10.1136 132.607 10.4817V16.3211C132.607 16.5152 132.45 16.6726 132.256 16.6726H130.791C130.597 16.6726 130.439 16.5152 130.439 16.3211V7.32284C130.439 7.12871 130.597 6.97135 130.791 6.97135H132.256C132.45 6.97135 132.607 7.12871 132.607 7.32284V8.52691C133.033 7.98123 133.424 7.67299 134.019 7.33869C134.551 7.04028 135.12 6.88647 135.7 6.84335Z" fill="#242727"/>
<path fill-rule="evenodd" clip-rule="evenodd" d="M123.242 6.72529C124.095 6.72529 124.826 6.93927 125.436 7.36723C125.729 7.56283 125.99 7.79733 126.217 8.0707L126.278 7.29523C126.292 7.11238 126.445 6.97133 126.628 6.97133H127.979C128.173 6.97133 128.331 7.1287 128.331 7.32283V16.3211C128.331 16.5152 128.173 16.6726 127.979 16.6726H126.628C126.445 16.6726 126.292 16.5315 126.278 16.3487L126.217 15.5781C125.99 15.855 125.729 16.0943 125.436 16.2961C124.826 16.7111 124.095 16.9186 123.242 16.9186C122.322 16.9186 121.516 16.7111 120.826 16.2961C120.149 15.8682 119.614 15.2716 119.221 14.5064C118.842 13.7413 118.653 12.8465 118.653 11.8219C118.653 10.7845 118.842 9.88963 119.221 9.13745C119.614 8.3723 120.149 7.78223 120.826 7.36723C121.516 6.93927 122.322 6.72529 123.242 6.72529ZM123.574 8.729C123.055 8.729 122.595 8.85868 122.193 9.11806C121.791 9.37743 121.473 9.74055 121.24 10.2074C121.019 10.6743 120.902 11.2125 120.889 11.822C120.902 12.4315 121.019 12.9697 121.24 13.4366C121.473 13.9035 121.791 14.2731 122.193 14.5454C122.608 14.8048 123.075 14.9345 123.593 14.9345C124.086 14.9345 124.521 14.8048 124.897 14.5454C125.286 14.2731 125.584 13.9035 125.792 13.4366C126.012 12.9697 126.122 12.4315 126.122 11.822C126.122 11.2125 126.012 10.6743 125.792 10.2074C125.584 9.74055 125.286 9.37743 124.897 9.11806C124.521 8.85868 124.08 8.729 123.574 8.729Z" fill="#242727"/>
<path d="M111.717 3.32751C111.911 3.32751 112.068 3.48488 112.068 3.67901V9.93139C112.72 9.00579 113.353 8.39986 114.253 7.85757C115.06 7.37136 115.881 6.97285 117.122 6.8443C117.323 6.82349 117.493 6.9846 117.493 7.18651V8.61053C117.493 8.78273 117.359 8.92449 117.189 8.94978C116.115 9.10921 114.985 9.6953 114.177 10.3122C114.128 10.3498 114.079 10.3882 114.03 10.4272L118.008 16.1574C118.159 16.375 118.003 16.6726 117.738 16.6726H116.083C115.924 16.6726 115.777 16.5923 115.69 16.4594L112.687 11.8408C112.446 12.1718 112.237 12.5188 112.068 12.8722V16.3211C112.068 16.5152 111.911 16.6726 111.717 16.6726H110.252C110.058 16.6726 109.901 16.5152 109.901 16.3211V3.67901C109.901 3.48488 110.058 3.32751 110.252 3.32751H111.717Z" fill="#242727"/>
<path fill-rule="evenodd" clip-rule="evenodd" d="M103.645 6.72529C104.513 6.72529 105.298 6.95224 105.997 7.40614C106.697 7.84707 107.248 8.48901 107.65 9.33197C108.011 10.0658 108.215 10.9241 108.262 11.9041C108.273 12.1497 108.073 12.3492 107.827 12.3492H100.932C100.966 12.8318 101.094 13.2591 101.312 13.6311C101.572 14.059 101.915 14.3897 102.343 14.6232C102.77 14.8566 103.243 14.9733 103.762 14.9733C104.358 14.9733 104.85 14.8436 105.239 14.5843C105.545 14.3701 105.799 14.1078 106 13.7973C106.094 13.6532 106.275 13.5857 106.433 13.6529L107.703 14.1918C107.905 14.2775 107.991 14.518 107.874 14.7033C107.638 15.0778 107.356 15.4142 107.028 15.7125C106.613 16.1016 106.114 16.3999 105.531 16.6074C104.961 16.8149 104.306 16.9186 103.567 16.9186C102.621 16.9186 101.779 16.7046 101.04 16.2767C100.314 15.8357 99.7377 15.2327 99.31 14.4675C98.8952 13.7024 98.6879 12.8205 98.6879 11.8219C98.6879 10.8234 98.9017 9.9415 99.3294 9.17635C99.7571 8.41121 100.34 7.81465 101.079 7.38669C101.831 6.94575 102.686 6.72529 103.645 6.72529ZM103.587 8.59277C103.198 8.59277 102.809 8.68355 102.42 8.86511C102.032 9.0337 101.708 9.29307 101.448 9.64323C101.235 9.92081 101.11 10.2643 101.072 10.6737H105.929C105.895 10.2643 105.781 9.92081 105.589 9.64323C105.356 9.29307 105.058 9.0337 104.695 8.86511C104.345 8.68355 103.976 8.59277 103.587 8.59277Z" fill="#242727"/>
<path d="M90.2169 16.6726C89.9969 16.6726 89.8185 16.4942 89.8185 16.2742V3.72587C89.8185 3.50587 89.9969 3.32751 90.2169 3.32751H91.6697C91.8897 3.32751 92.0681 3.50587 92.0681 3.72587V14.6222H97.8209C98.0409 14.6222 98.2192 14.8005 98.2192 15.0205V16.2742C98.2192 16.4942 98.0409 16.6726 97.8209 16.6726H90.2169Z" fill="#242727"/>
<path d="M80.0362 6.97133C80.2257 6.97133 80.3966 7.08551 80.4691 7.26063L83.3274 14.1605L86.1011 7.26509C86.1725 7.08761 86.3446 6.97134 86.5359 6.97133H88.0822C88.3163 6.97133 88.4751 7.20945 88.3851 7.42553L84.4346 16.9108C84.1629 17.5319 83.8847 18.0754 83.6 18.5412C83.3283 19.0071 82.9854 19.3629 82.5713 19.6088C82.1572 19.8676 81.629 20 80.982 20C80.6714 20 80.3197 19.9388 79.9315 19.8223C79.6703 19.7412 79.4154 19.6445 79.1667 19.5321C78.9841 19.4495 78.9107 19.2327 78.9946 19.0507L79.5209 17.9104C79.5974 17.7447 79.7939 17.6745 79.9626 17.744C80.0945 17.7983 80.22 17.8441 80.3391 17.8813C80.5462 17.9589 80.7144 17.9977 80.8438 17.9977C81.1543 17.9977 81.4131 17.9136 81.6202 17.7454C81.8402 17.5901 82.0149 17.3572 82.1443 17.0467L82.3194 16.6236L78.2014 7.43355C78.1041 7.21651 78.263 6.97133 78.5008 6.97133H80.0362Z" fill="#242727"/>
<path d="M73.864 6.72529C74.5984 6.72529 75.2226 6.88053 75.7366 7.19102C76.2629 7.5015 76.6607 7.98664 76.93 8.64642C77.2115 9.29327 77.3522 10.1406 77.3522 11.1885V16.3211C77.3522 16.5152 77.1948 16.6726 77.0007 16.6726H75.5361C75.342 16.6726 75.1847 16.5152 75.1847 16.3211V11.6931C75.1845 10.9217 75.099 10.3272 74.9339 9.91552C74.7805 9.49054 74.5538 9.1947 74.2587 9.02729C73.9754 8.85987 73.639 8.77616 73.2495 8.77616C72.5885 8.76328 72.0727 9.00153 71.7068 9.4909C71.3409 9.98027 71.1542 10.685 71.1542 11.5993V16.3211C71.1542 16.5152 70.9968 16.6726 70.8027 16.6726H69.3381C69.144 16.6726 68.9866 16.5152 68.9866 16.3211V11.6931C68.9865 10.9217 68.901 10.3272 68.7359 9.91552C68.5825 9.49054 68.3558 9.1947 68.0607 9.02729C67.7774 8.85987 67.441 8.77616 67.0515 8.77616C66.3904 8.76328 65.8747 9.00153 65.5088 9.4909C65.1428 9.98027 64.9562 10.685 64.9562 11.5993V16.3211C64.9562 16.5152 64.7988 16.6726 64.6047 16.6726H63.1401C62.946 16.6726 62.7886 16.5152 62.7886 16.3211V7.32283C62.7886 7.1287 62.946 6.97133 63.1401 6.97133H64.4907C64.6741 6.97134 64.8267 7.11238 64.8411 7.29523L64.9183 8.27527C65.1577 7.87529 65.4494 7.55267 65.7934 7.30745C66.3197 6.91934 66.9439 6.72529 67.666 6.72529C68.4004 6.72529 69.0246 6.88053 69.5386 7.19102C70.0649 7.5015 70.4627 7.98664 70.7319 8.64642C70.7635 8.71884 70.7932 8.79378 70.8212 8.87122C71.1003 8.18584 71.4904 7.66459 71.9914 7.30745C72.5177 6.91934 73.1419 6.72529 73.864 6.72529Z" fill="#242727"/>
<path fill-rule="evenodd" clip-rule="evenodd" d="M55.5915 6.72529C56.4445 6.72529 57.1756 6.93927 57.7848 7.36723C58.0783 7.56283 58.3388 7.79733 58.5661 8.0707L58.6272 7.29523C58.6416 7.11238 58.7942 6.97133 58.9776 6.97133H60.3282C60.5223 6.97133 60.6797 7.1287 60.6797 7.32283V16.3211C60.6797 16.5152 60.5223 16.6726 60.3282 16.6726H58.9776C58.7942 16.6726 58.6416 16.5315 58.6272 16.3487L58.5665 15.5781C58.3391 15.855 58.0785 16.0943 57.7848 16.2961C57.1756 16.7111 56.4445 16.9186 55.5915 16.9186C54.6709 16.9186 53.8653 16.7111 53.1748 16.2961C52.4979 15.8682 51.9631 15.2716 51.5705 14.5064C51.1914 13.7413 51.0019 12.8465 51.0019 11.8219C51.0019 10.7845 51.1914 9.88963 51.5705 9.13745C51.9631 8.3723 52.4979 7.78223 53.1748 7.36723C53.8653 6.93927 54.6709 6.72529 55.5915 6.72529ZM55.9231 8.729C55.4044 8.729 54.944 8.85868 54.542 9.11806C54.1399 9.37743 53.8222 9.74055 53.5888 10.2074C53.3683 10.6743 53.2516 11.2125 53.2386 11.822C53.2516 12.4315 53.3683 12.9697 53.5888 13.4366C53.8222 13.9035 54.1399 14.2731 54.542 14.5454C54.9569 14.8048 55.4238 14.9345 55.9426 14.9345C56.4354 14.9345 56.8698 14.8048 57.2459 14.5454C57.635 14.2731 57.9333 13.9035 58.1408 13.4366C58.3612 12.9697 58.4714 12.4315 58.4714 11.822C58.4714 11.2125 58.3612 10.6743 58.1408 10.2074C57.9333 9.74055 57.635 9.37743 57.2459 9.11806C56.8698 8.85868 56.4289 8.729 55.9231 8.729Z" fill="#242727"/>
<path d="M45.7919 6.72529C46.5681 6.72529 47.2278 6.88053 47.7712 7.19102C48.3274 7.5015 48.7478 7.98664 49.0324 8.64642C49.33 9.29327 49.4787 10.1406 49.4787 11.1885V16.3211C49.4787 16.5152 49.3214 16.6726 49.1272 16.6726H47.6627C47.4686 16.6726 47.3112 16.5152 47.3112 16.3211V11.6931C47.3112 10.9169 47.2175 10.3214 47.0364 9.90741C46.8682 9.48049 46.6198 9.1833 46.2964 9.01512C45.9859 8.84695 45.6173 8.76286 45.1904 8.76285C44.4659 8.74992 43.9007 8.98925 43.4997 9.48085C43.0987 9.97246 42.8941 10.6808 42.8941 11.5993V16.3211C42.8941 16.5152 42.7367 16.6726 42.5426 16.6726H41.078C40.8839 16.6726 40.7265 16.5152 40.7265 16.3211V7.32283C40.7265 7.1287 40.8839 6.97133 41.078 6.97133H42.4286C42.612 6.97134 42.7646 7.11238 42.779 7.29523L42.8597 8.32018C43.1179 7.89937 43.4356 7.56179 43.8126 7.30745C44.3689 6.91934 45.0287 6.72529 45.7919 6.72529Z" fill="#242727"/>
<path d="M28.518 16.6726C28.298 16.6726 28.1196 16.4942 28.1196 16.2742L28.1196 14.7034C28.1196 14.5452 28.1768 14.3924 28.2805 14.273L35.969 5.42476H28.5766C28.3566 5.42476 28.1782 5.24641 28.1782 5.0264V3.72587C28.1782 3.50587 28.3566 3.32751 28.5766 3.32751H38.4536C38.6736 3.32751 38.8519 3.50587 38.8519 3.72587V5.29694C38.8519 5.45494 38.7949 5.60763 38.6913 5.72696L31.0132 14.5753H38.395C38.615 14.5753 38.7933 14.7537 38.7933 14.9737V16.2742C38.7933 16.4942 38.615 16.6726 38.395 16.6726H28.518Z" fill="#242727"/>
<path fill-rule="evenodd" clip-rule="evenodd" d="M0.909391 5.92366C1.02477 5.57138 1.39031 5.36566 1.75141 5.44981L7.16884 6.71222C7.5509 6.80125 7.92309 6.5308 7.95631 6.13999L8.4226 0.654475C8.45406 0.284384 8.7637 0 9.13521 0H11.978C12.3496 0 12.6592 0.28444 12.6907 0.654572L13.118 5.68978C13.1369 5.91303 13.0046 6.12176 12.795 6.20121C10.6786 7.00375 9.33332 7.58393 7.75526 8.62317C6.73652 9.29407 5.71383 10.0605 4.81233 10.9178C4.6441 11.0778 4.39767 11.1273 4.18343 11.0378L0.439571 9.47368C0.0954219 9.3299 -0.0804166 8.94583 0.0356516 8.59144L0.909391 5.92366ZM15.639 19.8656C15.3391 20.0811 14.9245 20.0328 14.6821 19.7543L11.9903 16.6609C11.8352 16.4826 11.8038 16.2263 11.927 16.0246C12.6181 14.8938 13.7842 13.7135 14.9235 12.8799C15.1202 12.736 15.3953 12.7968 15.5226 13.0047L18.1292 17.261C18.3247 17.5804 18.2407 17.9965 17.9365 18.2151L15.639 19.8656ZM6.03773 19.8724C6.38802 20.1149 6.87071 19.9986 7.08523 19.6306C10.0642 14.52 14.7325 10.7244 20.5676 9.40061C20.9465 9.31464 21.1784 8.92398 21.0574 8.55481L20.1915 5.91304C20.0859 5.59082 19.7679 5.38596 19.4319 5.4323C12.2258 6.42629 6.07714 10.6282 2.58812 16.6321C2.38671 16.9786 2.49326 17.419 2.8229 17.6471L6.03773 19.8724Z" fill="#00A085"/>
</svg>
