<svg width="97" height="20" viewBox="0 0 97 20" fill="none" xmlns="http://www.w3.org/2000/svg">
<path fill-rule="evenodd" clip-rule="evenodd" d="M91.387 6.72529C92.24 6.72529 92.9711 6.93927 93.5803 7.36723C93.8738 7.56283 94.1343 7.79733 94.3616 8.0707L94.4227 7.29523C94.4371 7.11238 94.5897 6.97133 94.7731 6.97133H96.1237C96.3178 6.97133 96.4752 7.1287 96.4752 7.32283V16.3211C96.4752 16.5152 96.3178 16.6726 96.1237 16.6726H94.7731C94.5897 16.6726 94.4371 16.5315 94.4227 16.3487L94.362 15.5781C94.1345 15.855 93.874 16.0943 93.5803 16.2961C92.9711 16.7111 92.24 16.9186 91.387 16.9186C90.4664 16.9186 89.6608 16.7111 88.9703 16.2961C88.2934 15.8682 87.7586 15.2716 87.366 14.5065C86.9869 13.7413 86.7974 12.8465 86.7974 11.822C86.7974 10.7845 86.9869 9.88963 87.366 9.13745C87.7586 8.3723 88.2934 7.78223 88.9703 7.36723C89.6608 6.93927 90.4664 6.72529 91.387 6.72529ZM91.7186 8.729C91.1999 8.729 90.7395 8.85868 90.3374 9.11806C89.9354 9.37743 89.6177 9.74055 89.3843 10.2074C89.1638 10.6743 89.0471 11.2125 89.0341 11.822C89.0471 12.4315 89.1638 12.9697 89.3843 13.4366C89.6177 13.9035 89.9354 14.2731 90.3374 14.5454C90.7524 14.8048 91.2193 14.9345 91.7381 14.9345C92.2309 14.9345 92.6653 14.8048 93.0414 14.5454C93.4305 14.2731 93.7287 13.9035 93.9362 13.4366C94.1567 12.9697 94.2669 12.4315 94.2669 11.822C94.2669 11.2125 94.1567 10.6743 93.9362 10.2074C93.7287 9.74055 93.4305 9.37743 93.0414 9.11806C92.6653 8.85868 92.2244 8.729 91.7186 8.729Z" fill="#242727"/>
<path fill-rule="evenodd" clip-rule="evenodd" d="M84.9227 3.32751C85.1169 3.32751 85.2742 3.48489 85.2742 3.67901V16.3211C85.2742 16.5152 85.1169 16.6726 84.9227 16.6726H83.5722C83.3888 16.6726 83.2362 16.5315 83.2218 16.3487L83.1479 15.4103C82.896 15.7593 82.5976 16.0546 82.2527 16.2961C81.6548 16.7111 80.9374 16.9186 80.1004 16.9186C79.1969 16.9186 78.4064 16.7111 77.7288 16.2961C77.0645 15.8682 76.5397 15.2716 76.1544 14.5065C75.7824 13.7413 75.5964 12.8465 75.5964 11.822C75.5964 10.7845 75.7824 9.88963 76.1544 9.13745C76.5397 8.3723 77.0645 7.78223 77.7288 7.36723C78.4064 6.93927 79.1969 6.72529 80.1004 6.72529C80.9374 6.72529 81.6548 6.93927 82.2527 7.36723C82.579 7.58883 82.8637 7.86035 83.1067 8.18178V3.67341C83.1067 3.48238 83.2615 3.32752 83.4526 3.32751H84.9227ZM80.5177 8.729C79.9989 8.729 79.5385 8.85868 79.1365 9.11806C78.7345 9.37743 78.4168 9.74056 78.1833 10.2074C77.9629 10.6743 77.8461 11.2125 77.8332 11.822C77.8461 12.4315 77.9629 12.9697 78.1833 13.4366C78.4168 13.9035 78.7345 14.2731 79.1365 14.5454C79.5515 14.8048 80.0184 14.9345 80.5371 14.9345C81.0299 14.9345 81.4644 14.8048 81.8405 14.5454C82.2295 14.2731 82.5278 13.9035 82.7353 13.4366C82.9558 12.9697 83.066 12.4315 83.066 11.822C83.066 11.2125 82.9558 10.6743 82.7353 10.2074C82.5278 9.74056 82.2295 9.37743 81.8405 9.11806C81.4644 8.85869 81.0234 8.729 80.5177 8.729Z" fill="#242727"/>
<path fill-rule="evenodd" clip-rule="evenodd" d="M69.6908 6.72529C70.5591 6.72529 71.3432 6.95224 72.0431 7.40614C72.7429 7.84707 73.2938 8.48902 73.6955 9.33197C74.0566 10.0658 74.2604 10.9241 74.3072 11.9041C74.3189 12.1497 74.1183 12.3492 73.8724 12.3492H66.9772C67.0115 12.8318 67.1393 13.2591 67.358 13.6311C67.6172 14.059 67.9606 14.3897 68.3883 14.6232C68.816 14.8566 69.289 14.9733 69.8074 14.9733C70.4036 14.9733 70.8961 14.8436 71.2849 14.5843C71.5907 14.3701 71.8444 14.1078 72.046 13.7973C72.1395 13.6532 72.3209 13.5857 72.479 13.6529L73.7487 14.1918C73.9504 14.2775 74.037 14.518 73.92 14.7033C73.6835 15.0778 73.4013 15.4142 73.0734 15.7125C72.6587 16.1016 72.1597 16.3999 71.5765 16.6074C71.0063 16.8149 70.3518 16.9186 69.6131 16.9186C68.667 16.9186 67.8245 16.7046 67.0858 16.2767C66.36 15.8357 65.7833 15.2327 65.3556 14.4675C64.9409 13.7024 64.7335 12.8205 64.7335 11.822C64.7335 10.8234 64.9474 9.9415 65.3751 9.17635C65.8028 8.41121 66.386 7.81465 67.1247 7.38669C67.8764 6.94575 68.7318 6.72529 69.6908 6.72529ZM69.6325 8.59277C69.2437 8.59277 68.8549 8.68355 68.4661 8.86511C68.0773 9.0337 67.7533 9.29307 67.4941 9.64323C67.2807 9.92081 67.1556 10.2643 67.1178 10.6737H71.9743C71.9404 10.2643 71.8269 9.92081 71.6349 9.64323C71.4016 9.29308 71.1035 9.0337 70.7406 8.86511C70.3907 8.68355 70.0213 8.59277 69.6325 8.59277Z" fill="#242727"/>
<path d="M59.605 6.72529C60.3394 6.72529 60.9636 6.88053 61.4777 7.19102C62.0039 7.5015 62.4017 7.98664 62.671 8.64642C62.9525 9.29327 63.0932 10.1406 63.0932 11.1885V16.3211C63.0932 16.5152 62.9359 16.6726 62.7417 16.6726H61.2772C61.0831 16.6726 60.9257 16.5152 60.9257 16.3211V11.6931C60.9255 10.9217 60.84 10.3272 60.6749 9.91552C60.5215 9.49054 60.2948 9.1947 59.9997 9.02729C59.7164 8.85987 59.38 8.77616 58.9905 8.77616C58.3295 8.76328 57.8137 9.00153 57.4478 9.4909C57.0819 9.98027 56.8952 10.685 56.8952 11.5993V16.3211C56.8952 16.5152 56.7379 16.6726 56.5437 16.6726H55.0792C54.885 16.6726 54.7277 16.5152 54.7277 16.3211V11.6931C54.7275 10.9217 54.642 10.3272 54.4769 9.91552C54.3235 9.49054 54.0968 9.1947 53.8017 9.02729C53.5184 8.85987 53.182 8.77616 52.7925 8.77616C52.1315 8.76328 51.6157 9.00153 51.2498 9.4909C50.8839 9.98027 50.6972 10.685 50.6972 11.5993V16.3211C50.6972 16.5152 50.5398 16.6726 50.3457 16.6726H48.8812C48.687 16.6726 48.5297 16.5152 48.5297 16.3211V7.32283C48.5297 7.1287 48.687 6.97133 48.8812 6.97133H50.2317C50.4151 6.97134 50.5677 7.11238 50.5821 7.29523L50.6593 8.27527C50.8987 7.87529 51.1904 7.55268 51.5344 7.30745C52.0607 6.91934 52.6849 6.72529 53.407 6.72529C54.1414 6.72529 54.7656 6.88053 55.2796 7.19102C55.8059 7.5015 56.2037 7.98664 56.473 8.64642C56.5045 8.71884 56.5342 8.79378 56.5622 8.87122C56.8414 8.18584 57.2315 7.66459 57.7324 7.30745C58.2587 6.91934 58.8829 6.72529 59.605 6.72529Z" fill="#242727"/>
<path fill-rule="evenodd" clip-rule="evenodd" d="M41.3326 6.72529C42.1855 6.72529 42.9166 6.93927 43.5258 7.36723C43.8194 7.56283 44.0798 7.79733 44.3072 8.0707L44.3682 7.29523C44.3826 7.11238 44.5352 6.97133 44.7187 6.97133H46.0692C46.2633 6.97133 46.4207 7.1287 46.4207 7.32283V16.3211C46.4207 16.5152 46.2633 16.6726 46.0692 16.6726H44.7186C44.5352 16.6726 44.3826 16.5315 44.3682 16.3487L44.3075 15.5781C44.0801 15.855 43.8195 16.0943 43.5258 16.2961C42.9166 16.7111 42.1855 16.9186 41.3326 16.9186C40.4119 16.9186 39.6064 16.7111 38.9159 16.2961C38.2389 15.8682 37.7042 15.2716 37.3115 14.5065C36.9324 13.7413 36.7429 12.8465 36.7429 11.822C36.7429 10.7845 36.9324 9.88963 37.3115 9.13745C37.7042 8.3723 38.2389 7.78223 38.9159 7.36723C39.6064 6.93927 40.4119 6.72529 41.3326 6.72529ZM41.6641 8.729C41.1454 8.729 40.685 8.85868 40.283 9.11806C39.881 9.37743 39.5632 9.74055 39.3298 10.2074C39.1093 10.6743 38.9926 11.2125 38.9796 11.822C38.9926 12.4315 39.1093 12.9697 39.3298 13.4366C39.5632 13.9035 39.881 14.2731 40.283 14.5454C40.698 14.8048 41.1648 14.9345 41.6836 14.9345C42.1764 14.9345 42.6109 14.8048 42.9869 14.5454C43.376 14.2731 43.6743 13.9035 43.8818 13.4366C44.1022 12.9697 44.2125 12.4315 44.2125 11.822C44.2125 11.2125 44.1022 10.6743 43.8818 10.2074C43.6743 9.74055 43.376 9.37743 42.9869 9.11806C42.6109 8.85868 42.1699 8.729 41.6641 8.729Z" fill="#242727"/>
<path d="M30.4341 16.9186C29.8395 16.9186 29.3095 16.8281 28.8441 16.6471C28.3917 16.4662 27.9974 16.227 27.6613 15.9297C27.3252 15.6324 27.0473 15.3092 26.8275 14.9602C26.6971 14.7401 26.5872 14.5226 26.4979 14.3077C26.4108 14.0979 26.5201 13.8643 26.7286 13.7743L27.8835 13.2759C28.061 13.1993 28.2654 13.2813 28.3566 13.4517C28.5624 13.8363 28.809 14.1517 29.0962 14.3978C29.4711 14.7081 29.9235 14.8632 30.4535 14.8632C30.8801 14.8632 31.2808 14.7663 31.6557 14.5724C32.0435 14.3655 32.3602 14.0424 32.6059 13.6028C32.8515 13.1633 32.9702 12.581 32.9702 11.8571V3.72587C32.9702 3.50587 33.1486 3.32751 33.3686 3.32751H34.8214C35.0414 3.32751 35.2198 3.50587 35.2198 3.72587V12.5777C35.2198 13.1108 35.0943 13.8937 34.8358 14.4366C34.5902 14.9666 34.2476 15.4191 33.8081 15.794C33.3686 16.1688 32.8579 16.4532 32.2762 16.6471C31.6945 16.8281 31.0805 16.9186 30.4341 16.9186Z" fill="#242727"/>
<path fill-rule="evenodd" clip-rule="evenodd" d="M0.909391 5.92366C1.02477 5.57138 1.39031 5.36566 1.75141 5.44981L7.16884 6.71222C7.5509 6.80125 7.92309 6.5308 7.95631 6.13999L8.4226 0.654475C8.45406 0.284384 8.7637 0 9.13521 0H11.978C12.3496 0 12.6592 0.28444 12.6907 0.654572L13.118 5.68978C13.1369 5.91303 13.0046 6.12176 12.795 6.20121C10.6786 7.00375 9.33332 7.58393 7.75526 8.62317C6.73652 9.29407 5.71383 10.0605 4.81233 10.9178C4.6441 11.0778 4.39767 11.1273 4.18343 11.0378L0.439571 9.47368C0.0954219 9.3299 -0.0804166 8.94583 0.0356516 8.59144L0.909391 5.92366ZM15.639 19.8656C15.3391 20.0811 14.9245 20.0328 14.6821 19.7543L11.9903 16.6609C11.8352 16.4826 11.8038 16.2263 11.927 16.0246C12.6181 14.8938 13.7842 13.7135 14.9235 12.8799C15.1202 12.736 15.3953 12.7968 15.5226 13.0047L18.1292 17.261C18.3247 17.5804 18.2407 17.9965 17.9365 18.2151L15.639 19.8656ZM6.03773 19.8724C6.38802 20.1149 6.87071 19.9986 7.08523 19.6306C10.0642 14.52 14.7325 10.7244 20.5676 9.40061C20.9465 9.31464 21.1784 8.92398 21.0574 8.55481L20.1915 5.91304C20.0859 5.59082 19.7679 5.38596 19.4319 5.4323C12.2258 6.42629 6.07714 10.6282 2.58812 16.6321C2.38671 16.9786 2.49326 17.419 2.8229 17.6471L6.03773 19.8724Z" fill="#00A085"/>
</svg>
