<svg width="122" height="20" viewBox="0 0 122 20" fill="none" xmlns="http://www.w3.org/2000/svg">
<path fill-rule="evenodd" clip-rule="evenodd" d="M117.365 6.72524C118.233 6.72524 119.018 6.95219 119.717 7.40609C120.417 7.84702 120.968 8.48897 121.37 9.33192C121.731 10.0658 121.935 10.924 121.982 11.904C121.993 12.1496 121.793 12.3491 121.547 12.3491H114.652C114.686 12.8318 114.814 13.2591 115.032 13.631C115.292 14.059 115.635 14.3897 116.063 14.6231C116.49 14.8566 116.963 14.9733 117.482 14.9733C118.078 14.9733 118.57 14.8436 118.959 14.5842C119.265 14.37 119.519 14.1077 119.72 13.7973C119.814 13.6532 119.995 13.5857 120.153 13.6528L121.423 14.1918C121.625 14.2774 121.711 14.5179 121.594 14.7032C121.358 15.0778 121.076 15.4142 120.748 15.7125C120.333 16.1015 119.834 16.3998 119.251 16.6073C118.681 16.8148 118.026 16.9186 117.287 16.9186C116.341 16.9186 115.499 16.7046 114.76 16.2766C114.034 15.8357 113.458 15.2326 113.03 14.4675C112.615 13.7024 112.408 12.8205 112.408 11.8219C112.408 10.8233 112.622 9.94145 113.049 9.1763C113.477 8.41116 114.06 7.8146 114.799 7.38664C115.551 6.9457 116.406 6.72524 117.365 6.72524ZM117.307 8.59272C116.918 8.59272 116.529 8.6835 116.14 8.86506C115.752 9.03365 115.428 9.29303 115.168 9.64318C114.955 9.92076 114.83 10.2643 114.792 10.6737H119.649C119.615 10.2643 119.501 9.92076 119.309 9.64318C119.076 9.29303 118.778 9.03365 118.415 8.86506C118.065 8.6835 117.696 8.59272 117.307 8.59272Z" fill="#242727"/>
<path d="M111.635 6.8433C111.828 6.82892 111.986 6.98781 111.986 7.18193V8.60166C111.986 8.77748 111.847 8.92109 111.672 8.93525C110.966 8.99231 110.447 9.13824 109.924 9.39074C109.326 9.6792 108.861 10.1135 108.541 10.4817V16.321C108.541 16.5152 108.384 16.6725 108.19 16.6725H106.725C106.531 16.6725 106.374 16.5152 106.374 16.321V7.32279C106.374 7.12867 106.531 6.9713 106.725 6.9713H108.19C108.384 6.9713 108.541 7.12867 108.541 7.32279V8.52686C108.967 7.98118 109.359 7.67295 109.954 7.33864C110.485 7.04023 111.054 6.88642 111.635 6.8433Z" fill="#242727"/>
<path d="M99.9132 16.9186C98.9406 16.9186 98.0718 16.7046 97.3067 16.2766C96.5546 15.8357 95.9646 15.2326 95.5367 14.4675C95.1087 13.7023 94.8948 12.8205 94.8948 11.8219C94.8948 10.8233 95.1022 9.94145 95.5172 9.17631C95.9451 8.41116 96.5352 7.8146 97.2873 7.38664C98.0394 6.94571 98.9017 6.72524 99.8743 6.72524C100.847 6.72524 101.709 6.94571 102.461 7.38664C103.213 7.8146 103.797 8.41116 104.212 9.17631C104.64 9.94145 104.854 10.8233 104.854 11.8219C104.854 12.8205 104.646 13.7023 104.231 14.4675C103.816 15.2326 103.233 15.8357 102.481 16.2766C101.729 16.7046 100.873 16.9186 99.9132 16.9186ZM99.9132 14.9149C100.445 14.9149 100.918 14.7852 101.333 14.5259C101.748 14.2535 102.072 13.8904 102.306 13.4365C102.539 12.9696 102.656 12.4314 102.656 11.8219C102.656 11.2124 102.533 10.6807 102.286 10.2268C102.053 9.75989 101.729 9.39677 101.314 9.1374C100.899 8.86506 100.419 8.72889 99.8743 8.72889C99.3296 8.72889 98.8498 8.85858 98.4349 9.11795C98.0199 9.37732 97.6957 9.74044 97.4623 10.2073C97.2289 10.6742 97.1122 11.2124 97.1122 11.8219C97.1122 12.4314 97.2289 12.9696 97.4623 13.4365C97.7087 13.8904 98.0394 14.2535 98.4543 14.5259C98.8823 14.7852 99.3685 14.9149 99.9132 14.9149Z" fill="#242727"/>
<path d="M90.9331 4.56941C91.1272 4.56941 91.2846 4.72678 91.2846 4.92091V7.64227C91.9393 7.16296 92.7078 6.90572 93.4409 6.84355C93.6343 6.82715 93.7919 6.98601 93.7919 7.18013V8.58489C93.7919 8.7635 93.6482 8.90881 93.4699 8.91959C92.4844 8.97922 91.7586 9.22118 91.2846 9.63552V13.5337C91.2846 13.9875 91.3852 14.3305 91.5926 14.5639C91.813 14.7972 92.1307 14.9139 92.5456 14.9139C92.6752 14.9139 92.8178 14.888 92.9734 14.8361C93.0344 14.8158 93.0989 14.7885 93.1664 14.7542C93.3498 14.6612 93.5837 14.716 93.6724 14.9015L94.1536 15.9077C94.233 16.0738 94.1809 16.2745 94.0232 16.3694C93.7751 16.5187 93.5266 16.6368 93.2789 16.7226C92.9418 16.8522 92.5112 16.9186 92.1741 16.9186C91.1499 16.9186 90.4589 16.6642 89.9144 16.1586C89.3828 15.64 89.117 14.9008 89.117 13.9414V4.92091C89.117 4.72678 89.2744 4.56941 89.4685 4.56941H90.9331Z" fill="#242727"/>
<path d="M84.4524 4.56941C84.6465 4.56941 84.8039 4.72678 84.8039 4.92091V7.64227C85.4586 7.16296 86.2271 6.90572 86.9602 6.84355C87.1536 6.82715 87.3112 6.98601 87.3112 7.18013V8.58489C87.3112 8.7635 87.1674 8.90881 86.9892 8.91959C86.0037 8.97922 85.2779 9.22118 84.8039 9.63552V13.5337C84.8039 13.9875 84.9045 14.3305 85.1119 14.5639C85.3323 14.7972 85.65 14.9139 86.0648 14.9139C86.1945 14.9139 86.3371 14.888 86.4927 14.8361C86.5537 14.8158 86.6182 14.7885 86.6857 14.7542C86.869 14.6612 87.103 14.716 87.1917 14.9015L87.6729 15.9077C87.7523 16.0738 87.7002 16.2745 87.5425 16.3694C87.2944 16.5187 87.0459 16.6368 86.7981 16.7226C86.4611 16.8522 86.0305 16.9186 85.6934 16.9186C84.6691 16.9186 83.9782 16.6642 83.4337 16.1586C82.9021 15.64 82.6363 14.9008 82.6363 13.9414V4.92091C82.6363 4.72678 82.7937 4.56941 82.9878 4.56941H84.4524Z" fill="#242727"/>
<path d="M76.1726 16.9186C75.2 16.9186 74.3312 16.7046 73.5661 16.2766C72.814 15.8357 72.224 15.2326 71.7961 14.4675C71.3682 13.7023 71.1542 12.8205 71.1542 11.8219C71.1542 10.8233 71.3617 9.94145 71.7766 9.17631C72.2046 8.41116 72.7946 7.8146 73.5467 7.38664C74.2988 6.94571 75.1611 6.72524 76.1337 6.72524C77.1063 6.72524 77.9686 6.94571 78.7207 7.38664C79.4728 7.8146 80.0563 8.41116 80.4713 9.17631C80.8992 9.94145 81.1132 10.8233 81.1132 11.8219C81.1132 12.8205 80.9057 13.7023 80.4908 14.4675C80.0758 15.2326 79.4923 15.8357 78.7401 16.2766C77.988 16.7046 77.1322 16.9186 76.1726 16.9186ZM76.1726 14.9149C76.7043 14.9149 77.1776 14.7852 77.5925 14.5259C78.0075 14.2535 78.3317 13.8904 78.5651 13.4365C78.7985 12.9696 78.9152 12.4314 78.9152 11.8219C78.9152 11.2124 78.792 10.6807 78.5456 10.2268C78.3122 9.75989 77.988 9.39677 77.5731 9.1374C77.1581 8.86506 76.6783 8.72889 76.1337 8.72889C75.5891 8.72889 75.1093 8.85858 74.6943 9.11795C74.2793 9.37732 73.9552 9.74044 73.7217 10.2073C73.4883 10.6742 73.3716 11.2124 73.3716 11.8219C73.3716 12.4314 73.4883 12.9696 73.7217 13.4365C73.9681 13.8904 74.2988 14.2535 74.7138 14.5259C75.1417 14.7852 75.628 14.9149 76.1726 14.9149Z" fill="#242727"/>
<path fill-rule="evenodd" clip-rule="evenodd" d="M63.2528 3.32747C64.5619 3.32747 65.7185 3.61344 66.7225 4.18537C67.7393 4.74459 68.5337 5.52623 69.1056 6.53028C69.6902 7.53434 69.9826 8.69091 69.9826 9.99999C69.9826 11.2964 69.6902 12.4466 69.1056 13.4506C68.5337 14.4547 67.7393 15.2427 66.7225 15.8146C65.7185 16.3865 64.5619 16.6725 63.2528 16.6725H59.2971C59.0512 16.6725 58.8519 16.4732 58.8519 16.2273V3.77269C58.8519 3.5268 59.0512 3.32747 59.2971 3.32747H63.2528ZM61.1015 14.5753H63.2433C63.8609 14.5753 64.4406 14.4618 64.9826 14.235C65.5246 13.9955 65.9972 13.6678 66.4005 13.2518C66.8039 12.8359 67.119 12.3507 67.3458 11.7961C67.5727 11.2415 67.6861 10.6428 67.6861 9.99999C67.6861 9.35719 67.5727 8.75848 67.3458 8.20391C67.119 7.64933 66.8039 7.16408 66.4005 6.74815C65.9972 6.33221 65.5246 6.0108 64.9826 5.78393C64.4406 5.54445 63.8609 5.42471 63.2433 5.42471H61.1015V14.5753Z" fill="#242727"/>
<path d="M52.3882 16.9186C51.4156 16.9186 50.5468 16.7046 49.7817 16.2766C49.0296 15.8357 48.4396 15.2326 48.0117 14.4675C47.5837 13.7023 47.3698 12.8205 47.3698 11.8219C47.3698 10.8233 47.5773 9.94145 47.9922 9.17631C48.4201 8.41116 49.0102 7.8146 49.7623 7.38664C50.5144 6.94571 51.3767 6.72524 52.3493 6.72524C53.3218 6.72524 54.1842 6.94571 54.9363 7.38664C55.6884 7.8146 56.2719 8.41116 56.6869 9.17631C57.1148 9.94145 57.3288 10.8233 57.3288 11.8219C57.3288 12.8205 57.1213 13.7023 56.7063 14.4675C56.2914 15.2326 55.7078 15.8357 54.9557 16.2766C54.2036 16.7046 53.3478 16.9186 52.3882 16.9186ZM52.3882 14.9149C52.9198 14.9149 53.3932 14.7852 53.8081 14.5259C54.2231 14.2535 54.5473 13.8904 54.7807 13.4365C55.0141 12.9696 55.1308 12.4314 55.1308 11.8219C55.1308 11.2124 55.0076 10.6807 54.7612 10.2268C54.5278 9.75989 54.2036 9.39677 53.7887 9.1374C53.3737 8.86506 52.8939 8.72889 52.3493 8.72889C51.8046 8.72889 51.3248 8.85858 50.9099 9.11795C50.4949 9.37732 50.1707 9.74044 49.9373 10.2073C49.7039 10.6742 49.5872 11.2124 49.5872 11.8219C49.5872 12.4314 49.7039 12.9696 49.9373 13.4365C50.1837 13.8904 50.5144 14.2535 50.9293 14.5259C51.3573 14.7852 51.8435 14.9149 52.3882 14.9149Z" fill="#242727"/>
<path d="M45.4248 6.9713C45.619 6.9713 45.7763 7.12867 45.7763 7.32279V16.321C45.7763 16.5152 45.619 16.6725 45.4248 16.6725H43.9603C43.7662 16.6725 43.6088 16.5152 43.6088 16.321V7.32279C43.6088 7.12867 43.7662 6.9713 43.9603 6.9713H45.4248Z" fill="#242727"/>
<path d="M44.6926 3.08142C45.0393 3.08142 45.3346 3.20434 45.5786 3.45018C45.8354 3.69602 45.9638 3.99361 45.9638 4.34295C45.9638 4.6923 45.8354 4.99636 45.5786 5.25513C45.3346 5.50097 45.0393 5.62389 44.6926 5.62389C44.3459 5.62389 44.0441 5.50097 43.7873 5.25513C43.5433 4.99636 43.4213 4.6923 43.4213 4.34295C43.4213 3.99361 43.5433 3.69602 43.7873 3.45018C44.0441 3.20434 44.3459 3.08142 44.6926 3.08142Z" fill="#242727"/>
<path d="M28.518 16.6725C28.298 16.6725 28.1196 16.4942 28.1196 16.2742V3.72583C28.1196 3.50582 28.298 3.32747 28.518 3.32747H30.1769C30.3927 3.32747 30.5946 3.43353 30.7171 3.61116L34.7746 9.49618L38.8321 3.61116C38.9545 3.43353 39.1565 3.32747 39.3722 3.32747H41.0312C41.2512 3.32747 41.4295 3.50582 41.4295 3.72583V16.2742C41.4295 16.4942 41.2512 16.6725 41.0312 16.6725H39.5783C39.3583 16.6725 39.18 16.4942 39.18 16.2742V6.97129L35.14 12.7734C34.9628 13.0279 34.5864 13.0279 34.4092 12.7734L30.3692 6.97129V16.2742C30.3692 16.4942 30.1908 16.6725 29.9708 16.6725H28.518Z" fill="#242727"/>
<path fill-rule="evenodd" clip-rule="evenodd" d="M0.909391 5.92366C1.02477 5.57138 1.39031 5.36566 1.75141 5.44981L7.16884 6.71222C7.5509 6.80125 7.92309 6.5308 7.95631 6.13999L8.4226 0.654475C8.45406 0.284384 8.7637 0 9.13521 0H11.978C12.3496 0 12.6592 0.28444 12.6907 0.654572L13.118 5.68978C13.1369 5.91303 13.0046 6.12176 12.795 6.20121C10.6786 7.00375 9.33332 7.58393 7.75526 8.62317C6.73652 9.29407 5.71383 10.0605 4.81233 10.9178C4.6441 11.0778 4.39767 11.1273 4.18343 11.0378L0.439571 9.47368C0.0954219 9.3299 -0.0804166 8.94583 0.0356516 8.59144L0.909391 5.92366ZM15.639 19.8656C15.3391 20.0811 14.9245 20.0328 14.6821 19.7543L11.9903 16.6609C11.8352 16.4826 11.8038 16.2263 11.927 16.0246C12.6181 14.8938 13.7842 13.7135 14.9235 12.8799C15.1202 12.736 15.3953 12.7968 15.5226 13.0047L18.1292 17.261C18.3247 17.5804 18.2407 17.9965 17.9365 18.2151L15.639 19.8656ZM6.03773 19.8724C6.38802 20.1149 6.87071 19.9986 7.08523 19.6306C10.0642 14.52 14.7325 10.7244 20.5676 9.40061C20.9465 9.31464 21.1784 8.92398 21.0574 8.55481L20.1915 5.91304C20.0859 5.59082 19.7679 5.38596 19.4319 5.4323C12.2258 6.42629 6.07714 10.6282 2.58812 16.6321C2.38671 16.9786 2.49326 17.419 2.8229 17.6471L6.03773 19.8724Z" fill="#00A085"/>
</svg>
