<svg width="149" height="20" viewBox="0 0 149 20" fill="none" xmlns="http://www.w3.org/2000/svg">
<path d="M148.101 6.9713C148.295 6.9713 148.452 7.12867 148.452 7.32279V16.321C148.452 16.5152 148.295 16.6725 148.101 16.6725H146.636C146.442 16.6725 146.285 16.5152 146.285 16.321V7.32279C146.285 7.12867 146.442 6.9713 146.636 6.9713H148.101Z" fill="#242727"/>
<path d="M147.369 3.08142C147.715 3.08142 148.011 3.20434 148.255 3.45018C148.512 3.69602 148.64 3.99361 148.64 4.34295C148.64 4.6923 148.512 4.99636 148.255 5.25513C148.011 5.50097 147.715 5.62389 147.369 5.62389C147.022 5.62389 146.72 5.50097 146.463 5.25513C146.219 4.99636 146.097 4.6923 146.097 4.34295C146.097 3.99361 146.219 3.69602 146.463 3.45018C146.72 3.20434 147.022 3.08142 147.369 3.08142Z" fill="#242727"/>
<path d="M140.617 6.72524C141.352 6.72524 141.976 6.88048 142.49 7.19097C143.016 7.50146 143.414 7.98659 143.683 8.64637C143.965 9.29322 144.106 10.1406 144.106 11.1885V16.321C144.106 16.5151 143.948 16.6725 143.754 16.6725H142.29C142.095 16.6725 141.938 16.5151 141.938 16.321V11.693C141.938 10.9216 141.852 10.3271 141.687 9.91547C141.534 9.49049 141.307 9.19466 141.012 9.02724C140.729 8.85983 140.392 8.77611 140.003 8.77611C139.342 8.76324 138.826 9.00148 138.46 9.49085C138.094 9.98022 137.908 10.6849 137.908 11.5993V16.321C137.908 16.5151 137.75 16.6725 137.556 16.6725H136.092C135.897 16.6725 135.74 16.5151 135.74 16.321V11.693C135.74 10.9216 135.654 10.3271 135.489 9.91547C135.336 9.49049 135.109 9.19466 134.814 9.02724C134.531 8.85983 134.194 8.77611 133.805 8.77611C133.144 8.76324 132.628 9.00148 132.262 9.49085C131.896 9.98022 131.71 10.6849 131.71 11.5993V16.321C131.71 16.5151 131.552 16.6725 131.358 16.6725H129.894C129.699 16.6725 129.542 16.5151 129.542 16.321V7.32278C129.542 7.12866 129.699 6.97129 129.894 6.97129H131.244C131.428 6.97129 131.58 7.11233 131.595 7.29518L131.672 8.27522C131.911 7.87524 132.203 7.55263 132.547 7.3074C133.073 6.9193 133.697 6.72524 134.419 6.72524C135.154 6.72524 135.778 6.88048 136.292 7.19097C136.818 7.50146 137.216 7.98659 137.485 8.64637C137.517 8.71879 137.547 8.79373 137.575 8.87117C137.854 8.18579 138.244 7.66454 138.745 7.3074C139.271 6.9193 139.895 6.72524 140.617 6.72524Z" fill="#242727"/>
<path d="M127.011 6.9713C127.205 6.9713 127.363 7.12867 127.363 7.32279V16.321C127.363 16.5152 127.205 16.6725 127.011 16.6725H125.547C125.353 16.6725 125.195 16.5152 125.195 16.321V7.32279C125.195 7.12867 125.353 6.9713 125.547 6.9713H127.011Z" fill="#242727"/>
<path d="M126.279 3.08142C126.626 3.08142 126.921 3.20434 127.165 3.45018C127.422 3.69602 127.55 3.99361 127.55 4.34295C127.55 4.6923 127.422 4.99636 127.165 5.25513C126.921 5.50097 126.626 5.62389 126.279 5.62389C125.932 5.62389 125.631 5.50097 125.374 5.25513C125.13 4.99636 125.008 4.6923 125.008 4.34295C125.008 3.99361 125.13 3.69602 125.374 3.45018C125.631 3.20434 125.932 3.08142 126.279 3.08142Z" fill="#242727"/>
<path d="M115.935 6.97129C116.127 6.97129 116.3 7.08929 116.371 7.26871L119.131 14.2994L121.89 7.26871C121.961 7.08929 122.134 6.97129 122.326 6.97129H123.754C123.988 6.97129 124.146 7.2089 124.057 7.42491L120.346 16.3832C120.273 16.5583 120.102 16.6725 119.913 16.6725H118.348C118.159 16.6725 117.988 16.5583 117.915 16.3832L114.204 7.42491C114.115 7.2089 114.273 6.97129 114.507 6.97129H115.935Z" fill="#242727"/>
<path d="M107.254 3.32747C107.448 3.32747 107.606 3.48484 107.606 3.67896V9.93134C108.258 9.00574 108.891 8.39981 109.791 7.85753C110.598 7.37131 111.419 6.97282 112.66 6.84426C112.86 6.82345 113.031 6.98455 113.031 7.18646V8.61048C113.031 8.78269 112.897 8.92444 112.727 8.94973C111.653 9.10916 110.523 9.69525 109.715 10.3121C109.666 10.3497 109.617 10.3881 109.568 10.4272L113.546 16.1574C113.697 16.3749 113.541 16.6725 113.276 16.6725H111.621C111.462 16.6725 111.314 16.5923 111.228 16.4593L108.225 11.8408C107.984 12.1718 107.775 12.5187 107.606 12.8722V16.321C107.606 16.5151 107.448 16.6725 107.254 16.6725H105.79C105.596 16.6725 105.438 16.5151 105.438 16.321V3.67896C105.438 3.48484 105.596 3.32747 105.79 3.32747H107.254Z" fill="#242727"/>
<path fill-rule="evenodd" clip-rule="evenodd" d="M98.2412 6.72524C99.0941 6.72524 99.8252 6.93922 100.434 7.36719C100.728 7.56278 100.988 7.79728 101.216 8.07065L101.277 7.29518C101.291 7.11233 101.444 6.97129 101.627 6.97129H102.978C103.172 6.97129 103.329 7.12866 103.329 7.32278V16.321C103.329 16.5151 103.172 16.6725 102.978 16.6725H101.627C101.444 16.6725 101.291 16.5315 101.277 16.3486L101.216 15.5781C100.989 15.8549 100.728 16.0942 100.434 16.2961C99.8252 16.7111 99.0941 16.9186 98.2412 16.9186C97.3206 16.9186 96.515 16.7111 95.8245 16.2961C95.1476 15.8681 94.6128 15.2715 94.2202 14.5064C93.8411 13.7413 93.6515 12.8464 93.6515 11.8219C93.6515 10.7844 93.8411 9.88958 94.2202 9.1374C94.6128 8.37226 95.1476 7.78218 95.8245 7.36719C96.515 6.93922 97.3206 6.72524 98.2412 6.72524ZM98.5728 8.72895C98.054 8.72895 97.5936 8.85864 97.1916 9.11801C96.7896 9.37738 96.4719 9.74051 96.2384 10.2074C96.018 10.6742 95.9012 11.2124 95.8883 11.822C95.9012 12.4315 96.018 12.9697 96.2384 13.4366C96.4719 13.9034 96.7896 14.273 97.1916 14.5454C97.6066 14.8047 98.0735 14.9344 98.5922 14.9344C99.085 14.9344 99.5195 14.8047 99.8956 14.5454C100.285 14.273 100.583 13.9034 100.79 13.4366C101.011 12.9697 101.121 12.4315 101.121 11.822C101.121 11.2124 101.011 10.6742 100.79 10.2074C100.583 9.74051 100.285 9.37738 99.8956 9.11801C99.5195 8.85864 99.0785 8.72895 98.5728 8.72895Z" fill="#242727"/>
<path d="M88.3317 16.6725C88.1117 16.6725 87.9334 16.4942 87.9334 16.2742V5.37785H84.1609C83.9409 5.37785 83.7626 5.1995 83.7626 4.97949V3.72583C83.7626 3.50582 83.9409 3.32747 84.1609 3.32747H93.9561C94.1761 3.32747 94.3545 3.50582 94.3545 3.72583V4.97949C94.3545 5.1995 94.1761 5.37785 93.9561 5.37785H90.1832V16.2742C90.1832 16.4942 90.0048 16.6725 89.7848 16.6725H88.3317Z" fill="#242727"/>
<path d="M84.1129 6.8433C84.3065 6.82892 84.4641 6.98781 84.4641 7.18193V8.60166C84.4641 8.77748 84.3254 8.92109 84.1501 8.93525C83.4436 8.99231 82.925 9.13824 82.402 9.39074C81.8045 9.6792 81.3389 10.1135 81.0195 10.4817V16.321C81.0195 16.5152 80.8621 16.6725 80.668 16.6725H79.2034C79.0093 16.6725 78.8519 16.5152 78.8519 16.321V7.32279C78.8519 7.12867 79.0093 6.9713 79.2034 6.9713H80.668C80.8621 6.9713 81.0195 7.12867 81.0195 7.32279V8.52686C81.4451 7.98118 81.8366 7.67295 82.4318 7.33864C82.963 7.04023 83.5324 6.88642 84.1129 6.8433Z" fill="#242727"/>
<path d="M72.3896 16.9186C71.4171 16.9186 70.5483 16.7046 69.7832 16.2766C69.0311 15.8357 68.4411 15.2326 68.0131 14.4675C67.5852 13.7023 67.3712 12.8205 67.3712 11.8219C67.3712 10.8233 67.5787 9.94145 67.9937 9.17631C68.4216 8.41116 69.0116 7.8146 69.7637 7.38664C70.5158 6.94571 71.3782 6.72524 72.3507 6.72524C73.3233 6.72524 74.1856 6.94571 74.9377 7.38664C75.6899 7.8146 76.2734 8.41116 76.6883 9.17631C77.1163 9.94145 77.3302 10.8233 77.3302 11.8219C77.3302 12.8205 77.1228 13.7023 76.7078 14.4675C76.2928 15.2326 75.7093 15.8357 74.9572 16.2766C74.2051 16.7046 73.3492 16.9186 72.3896 16.9186ZM72.3896 14.9149C72.9213 14.9149 73.3946 14.7852 73.8096 14.5259C74.2245 14.2535 74.5487 13.8904 74.7821 13.4365C75.0155 12.9696 75.1323 12.4314 75.1323 11.8219C75.1323 11.2124 75.0091 10.6807 74.7627 10.2268C74.5293 9.75989 74.2051 9.39677 73.7901 9.1374C73.3752 8.86506 72.8954 8.72889 72.3507 8.72889C71.8061 8.72889 71.3263 8.85858 70.9114 9.11795C70.4964 9.37732 70.1722 9.74044 69.9388 10.2073C69.7054 10.6742 69.5887 11.2124 69.5887 11.8219C69.5887 12.4314 69.7054 12.9696 69.9388 13.4365C70.1852 13.8904 70.5158 14.2535 70.9308 14.5259C71.3587 14.7852 71.845 14.9149 72.3896 14.9149Z" fill="#242727"/>
<path d="M63.4096 4.56941C63.6037 4.56941 63.7611 4.72678 63.7611 4.92091V7.64227C64.4158 7.16296 65.1843 6.90572 65.9174 6.84355C66.1108 6.82715 66.2684 6.98601 66.2684 7.18013V8.58489C66.2684 8.7635 66.1247 8.90881 65.9464 8.91959C64.9609 8.97922 64.2351 9.22118 63.7611 9.63552V13.5337C63.7611 13.9875 63.8617 14.3305 64.0691 14.5639C64.2896 14.7972 64.6072 14.9139 65.0221 14.9139C65.1517 14.9139 65.2943 14.888 65.4499 14.8361C65.5109 14.8158 65.5754 14.7885 65.6429 14.7542C65.8263 14.6612 66.0602 14.716 66.1489 14.9015L66.6301 15.9077C66.7095 16.0738 66.6575 16.2745 66.4997 16.3694C66.2516 16.5187 66.0031 16.6368 65.7554 16.7226C65.4183 16.8522 64.9877 16.9186 64.6506 16.9186C63.6264 16.9186 62.9355 16.6642 62.3909 16.1586C61.8593 15.64 61.5936 14.9008 61.5936 13.9414V4.92091C61.5936 4.72678 61.7509 4.56941 61.9451 4.56941H63.4096Z" fill="#242727"/>
<path d="M53.7201 3.32747C53.9142 3.32747 54.0716 3.48484 54.0716 3.67896V9.93134C54.7236 9.00574 55.3569 8.39981 56.2567 7.85753C57.0635 7.37131 57.8849 6.97282 59.1254 6.84426C59.3262 6.82345 59.4963 6.98455 59.4963 7.18646V8.61048C59.4963 8.78269 59.3629 8.92444 59.1926 8.94973C58.119 9.10916 56.9885 9.69525 56.1806 10.3121C56.1313 10.3497 56.0824 10.3881 56.0339 10.4272L60.0113 16.1574C60.1623 16.3749 60.0066 16.6725 59.7418 16.6725H58.0865C57.9279 16.6725 57.7801 16.5923 57.6936 16.4593L54.6905 11.8408C54.45 12.1718 54.2408 12.5187 54.0716 12.8722V16.321C54.0716 16.5151 53.9142 16.6725 53.7201 16.6725H52.2555C52.0614 16.6725 51.904 16.5151 51.904 16.321V3.67896C51.904 3.48484 52.0614 3.32747 52.2555 3.32747H53.7201Z" fill="#242727"/>
<path d="M45.4403 16.9186C44.4678 16.9186 43.5989 16.7046 42.8339 16.2766C42.0817 15.8357 41.4917 15.2326 41.0638 14.4675C40.6359 13.7023 40.4219 12.8205 40.4219 11.8219C40.4219 10.8233 40.6294 9.94145 41.0444 9.17631C41.4723 8.41116 42.0623 7.8146 42.8144 7.38664C43.5665 6.94571 44.4289 6.72524 45.4014 6.72524C46.374 6.72524 47.2363 6.94571 47.9884 7.38664C48.7405 7.8146 49.3241 8.41116 49.739 9.17631C50.1669 9.94145 50.3809 10.8233 50.3809 11.8219C50.3809 12.8205 50.1734 13.7023 49.7585 14.4675C49.3435 15.2326 48.76 15.8357 48.0079 16.2766C47.2558 16.7046 46.3999 16.9186 45.4403 16.9186ZM45.4403 14.9149C45.972 14.9149 46.4453 14.7852 46.8602 14.5259C47.2752 14.2535 47.5994 13.8904 47.8328 13.4365C48.0662 12.9696 48.1829 12.4314 48.1829 11.8219C48.1829 11.2124 48.0597 10.6807 47.8134 10.2268C47.5799 9.75989 47.2558 9.39677 46.8408 9.1374C46.4258 8.86506 45.946 8.72889 45.4014 8.72889C44.8568 8.72889 44.377 8.85858 43.962 9.11795C43.5471 9.37732 43.2229 9.74044 42.9895 10.2073C42.7561 10.6742 42.6393 11.2124 42.6393 11.8219C42.6393 12.4314 42.7561 12.9696 42.9895 13.4365C43.2358 13.8904 43.5665 14.2535 43.9815 14.5259C44.4094 14.7852 44.8957 14.9149 45.4403 14.9149Z" fill="#242727"/>
<path fill-rule="evenodd" clip-rule="evenodd" d="M32.5205 3.32747C33.8296 3.32747 34.9862 3.61344 35.9903 4.18537C37.007 4.74459 37.8014 5.52623 38.3733 6.53028C38.9579 7.53434 39.2503 8.69091 39.2503 9.99999C39.2503 11.2964 38.9579 12.4466 38.3733 13.4506C37.8014 14.4547 37.007 15.2427 35.9903 15.8146C34.9862 16.3865 33.8296 16.6725 32.5205 16.6725H28.5649C28.319 16.6725 28.1196 16.4732 28.1196 16.2273V3.77269C28.1196 3.5268 28.319 3.32747 28.5649 3.32747H32.5205ZM30.3692 14.5753H32.511C33.1286 14.5753 33.7084 14.4618 34.2503 14.235C34.7923 13.9955 35.2649 13.6678 35.6683 13.2518C36.0716 12.8359 36.3867 12.3507 36.6135 11.7961C36.8404 11.2415 36.9538 10.6428 36.9538 9.99999C36.9538 9.35719 36.8404 8.75848 36.6135 8.20391C36.3867 7.64933 36.0716 7.16408 35.6683 6.74815C35.2649 6.33221 34.7923 6.0108 34.2503 5.78393C33.7084 5.54445 33.1286 5.42471 32.511 5.42471H30.3692V14.5753Z" fill="#242727"/>
<path fill-rule="evenodd" clip-rule="evenodd" d="M0.909391 5.92366C1.02477 5.57138 1.39031 5.36566 1.75141 5.44981L7.16884 6.71222C7.5509 6.80125 7.92309 6.5308 7.95631 6.13999L8.4226 0.654475C8.45406 0.284384 8.7637 0 9.13521 0H11.978C12.3496 0 12.6592 0.28444 12.6907 0.654572L13.118 5.68978C13.1369 5.91303 13.0046 6.12176 12.795 6.20121C10.6786 7.00375 9.33332 7.58393 7.75526 8.62317C6.73652 9.29407 5.71383 10.0605 4.81233 10.9178C4.6441 11.0778 4.39767 11.1273 4.18343 11.0378L0.439571 9.47368C0.0954219 9.3299 -0.0804166 8.94583 0.0356516 8.59144L0.909391 5.92366ZM15.639 19.8656C15.3391 20.0811 14.9245 20.0328 14.6821 19.7543L11.9903 16.6609C11.8352 16.4826 11.8038 16.2263 11.927 16.0246C12.6181 14.8938 13.7842 13.7135 14.9235 12.8799C15.1202 12.736 15.3953 12.7968 15.5226 13.0047L18.1292 17.261C18.3247 17.5804 18.2407 17.9965 17.9365 18.2151L15.639 19.8656ZM6.03773 19.8724C6.38802 20.1149 6.87071 19.9986 7.08523 19.6306C10.0642 14.52 14.7325 10.7244 20.5676 9.40061C20.9465 9.31464 21.1784 8.92398 21.0574 8.55481L20.1915 5.91304C20.0859 5.59082 19.7679 5.38596 19.4319 5.4323C12.2258 6.42629 6.07714 10.6282 2.58812 16.6321C2.38671 16.9786 2.49326 17.419 2.8229 17.6471L6.03773 19.8724Z" fill="#00A085"/>
</svg>
