<svg width="116" height="20" viewBox="0 0 116 20" fill="none" xmlns="http://www.w3.org/2000/svg">
<path fill-rule="evenodd" clip-rule="evenodd" d="M110.167 6.72524C111.02 6.72524 111.751 6.93922 112.36 7.36719C112.654 7.56278 112.914 7.79728 113.141 8.07065L113.202 7.29518C113.217 7.11233 113.369 6.97129 113.553 6.97129H114.903C115.098 6.97129 115.255 7.12866 115.255 7.32278V16.321C115.255 16.5151 115.098 16.6725 114.903 16.6725H113.553C113.369 16.6725 113.217 16.5315 113.202 16.3486L113.142 15.5781C112.914 15.8549 112.654 16.0942 112.36 16.2961C111.751 16.7111 111.02 16.9186 110.167 16.9186C109.246 16.9186 108.441 16.7111 107.75 16.2961C107.073 15.8681 106.538 15.2715 106.146 14.5064C105.767 13.7413 105.577 12.8464 105.577 11.8219C105.577 10.7844 105.767 9.88958 106.146 9.1374C106.538 8.37226 107.073 7.78218 107.75 7.36719C108.441 6.93922 109.246 6.72524 110.167 6.72524ZM110.498 8.72895C109.98 8.72895 109.519 8.85864 109.117 9.11801C108.715 9.37738 108.397 9.74051 108.164 10.2074C107.944 10.6742 107.827 11.2124 107.814 11.822C107.827 12.4315 107.944 12.9697 108.164 13.4366C108.397 13.9034 108.715 14.273 109.117 14.5454C109.532 14.8047 109.999 14.9344 110.518 14.9344C111.011 14.9344 111.445 14.8047 111.821 14.5454C112.21 14.273 112.509 13.9034 112.716 13.4366C112.937 12.9697 113.047 12.4315 113.047 11.822C113.047 11.2124 112.937 10.6742 112.716 10.2074C112.509 9.74051 112.21 9.37738 111.821 9.11801C111.445 8.85864 111.004 8.72895 110.498 8.72895Z" fill="#242727"/>
<path d="M103.632 6.9713C103.826 6.9713 103.984 7.12867 103.984 7.32279V16.321C103.984 16.5152 103.826 16.6725 103.632 16.6725H102.168C101.974 16.6725 101.816 16.5152 101.816 16.321V7.32279C101.816 7.12867 101.974 6.9713 102.168 6.9713H103.632Z" fill="#242727"/>
<path d="M102.9 3.08142C103.247 3.08142 103.542 3.20434 103.786 3.45018C104.043 3.69602 104.171 3.99361 104.171 4.34295C104.171 4.6923 104.043 4.99636 103.786 5.25513C103.542 5.50097 103.247 5.62389 102.9 5.62389C102.553 5.62389 102.251 5.50097 101.995 5.25513C101.751 4.99636 101.629 4.6923 101.629 4.34295C101.629 3.99361 101.751 3.69602 101.995 3.45018C102.251 3.20434 102.553 3.08142 102.9 3.08142Z" fill="#242727"/>
<path d="M97.938 16.6725C97.7439 16.6725 97.5865 16.5151 97.5865 16.321V3.67896C97.5865 3.48484 97.7439 3.32747 97.938 3.32747H99.4026C99.5967 3.32747 99.7541 3.48484 99.7541 3.67896V16.321C99.7541 16.5151 99.5967 16.6725 99.4026 16.6725H97.938Z" fill="#242727"/>
<path fill-rule="evenodd" clip-rule="evenodd" d="M90.3894 6.72524C91.2424 6.72524 91.9735 6.93922 92.5827 7.36719C92.8762 7.56278 93.1367 7.79728 93.364 8.07065L93.4251 7.29518C93.4395 7.11233 93.5921 6.97129 93.7755 6.97129H95.1261C95.3202 6.97129 95.4776 7.12866 95.4776 7.32278V16.321C95.4776 16.5151 95.3202 16.6725 95.1261 16.6725H93.7755C93.5921 16.6725 93.4395 16.5315 93.4251 16.3486L93.3644 15.5781C93.137 15.8549 92.8764 16.0942 92.5827 16.2961C91.9735 16.7111 91.2424 16.9186 90.3894 16.9186C89.4688 16.9186 88.6632 16.7111 87.9727 16.2961C87.2958 15.8681 86.761 15.2715 86.3684 14.5064C85.9893 13.7413 85.7998 12.8464 85.7998 11.8219C85.7998 10.7844 85.9893 9.88958 86.3684 9.1374C86.761 8.37226 87.2958 7.78218 87.9727 7.36719C88.6632 6.93922 89.4688 6.72524 90.3894 6.72524ZM90.721 8.72895C90.2023 8.72895 89.7419 8.85864 89.3399 9.11801C88.9378 9.37738 88.6201 9.74051 88.3867 10.2074C88.1662 10.6742 88.0495 11.2124 88.0365 11.822C88.0495 12.4315 88.1662 12.9697 88.3867 13.4366C88.6201 13.9034 88.9378 14.273 89.3399 14.5454C89.7548 14.8047 90.2217 14.9344 90.7405 14.9344C91.2333 14.9344 91.6677 14.8047 92.0438 14.5454C92.4329 14.273 92.7312 13.9034 92.9386 13.4366C93.1591 12.9697 93.2693 12.4315 93.2693 11.822C93.2693 11.2124 93.1591 10.6742 92.9386 10.2074C92.7311 9.74051 92.4329 9.37738 92.0438 9.11801C91.6677 8.85864 91.2268 8.72895 90.721 8.72895Z" fill="#242727"/>
<path d="M73.3021 16.9186C72.3295 16.9186 71.4607 16.7046 70.6956 16.2766C69.9435 15.8357 69.3535 15.2326 68.9256 14.4675C68.4976 13.7023 68.2837 12.8205 68.2837 11.8219C68.2837 10.8233 68.4911 9.94145 68.9061 9.17631C69.334 8.41116 69.924 7.8146 70.6762 7.38664C71.4283 6.94571 72.2906 6.72524 73.2632 6.72524C74.2357 6.72524 75.0981 6.94571 75.8502 7.38664C76.6023 7.8146 77.1858 8.41116 77.6008 9.17631C78.0287 9.94145 78.2427 10.8233 78.2427 11.8219C78.2427 12.8205 78.0352 13.7023 77.6202 14.4675C77.2053 15.2326 76.6217 15.8357 75.8696 16.2766C75.1175 16.7046 74.2617 16.9186 73.3021 16.9186ZM73.3021 14.9149C73.8337 14.9149 74.307 14.7852 74.722 14.5259C75.137 14.2535 75.4611 13.8904 75.6946 13.4365C75.928 12.9696 76.0447 12.4314 76.0447 11.8219C76.0447 11.2124 75.9215 10.6807 75.6751 10.2268C75.4417 9.75989 75.1175 9.39677 74.7025 9.1374C74.2876 8.86506 73.8078 8.72889 73.2632 8.72889C72.7185 8.72889 72.2387 8.85858 71.8238 9.11795C71.4088 9.37732 71.0846 9.74044 70.8512 10.2073C70.6178 10.6742 70.5011 11.2124 70.5011 11.8219C70.5011 12.4314 70.6178 12.9696 70.8512 13.4365C71.0976 13.8904 71.4283 14.2535 71.8432 14.5259C72.2712 14.7852 72.7574 14.9149 73.3021 14.9149Z" fill="#242727"/>
<path d="M64.3235 4.56941C64.5176 4.56941 64.675 4.72678 64.675 4.92091V7.64228C65.3297 7.16298 66.0982 6.90574 66.8313 6.84357C67.0247 6.82717 67.1823 6.98603 67.1823 7.18016V8.58491C67.1823 8.76353 67.0386 8.90883 66.8603 8.91962C65.8748 8.97925 65.149 9.22121 64.675 9.63555V13.5337C64.675 13.9875 64.7756 14.3305 64.983 14.5639C65.2034 14.7972 65.5211 14.9139 65.936 14.9139C66.0656 14.9139 66.2082 14.888 66.3638 14.8361C66.4249 14.8158 66.4895 14.7884 66.5571 14.7541C66.7404 14.661 66.9741 14.7158 67.0629 14.9011C67.0629 14.9011 67.4642 15.7414 67.5438 15.9075C67.6234 16.0736 67.5718 16.2745 67.4138 16.3694C67.1652 16.5186 66.917 16.6368 66.6693 16.7226C66.3322 16.8522 65.9016 16.9186 65.5645 16.9186C64.5403 16.9186 63.8493 16.6642 63.3048 16.1586C62.7732 15.64 62.5074 14.9008 62.5074 13.9414V4.92091C62.5074 4.72678 62.6648 4.56941 62.8589 4.56941H64.3235Z" fill="#242727"/>
<path d="M56.6452 16.9186C55.6474 16.9186 54.7663 16.7046 54.0017 16.2766C53.2372 15.8357 52.6346 15.2326 52.194 14.4675C51.7664 13.7023 51.5526 12.8205 51.5526 11.8219C51.5526 10.8233 51.7664 9.94145 52.194 9.17631C52.6346 8.41116 53.2307 7.8146 53.9823 7.38664C54.7468 6.94571 55.6215 6.72524 56.6064 6.72524C57.5653 6.72524 58.4335 6.95868 59.211 7.42555C59.878 7.81494 60.3972 8.35226 60.7686 9.03752C60.8705 9.22556 60.7741 9.45452 60.5745 9.53135L59.201 10.06C59.0418 10.1213 58.8643 10.0488 58.7715 9.9057C58.5714 9.59747 58.3033 9.34137 57.967 9.1374C57.5394 8.87803 57.0534 8.74834 56.5092 8.74834C55.9779 8.74834 55.5049 8.88451 55.0902 9.15685C54.6755 9.41623 54.3516 9.77935 54.1183 10.2462C53.8851 10.7001 53.7685 11.2253 53.7685 11.8219C53.7685 12.4185 53.8851 12.9502 54.1183 13.417C54.3645 13.8709 54.695 14.2341 55.1097 14.5064C55.5373 14.7658 56.0167 14.8955 56.548 14.8955C57.0923 14.8955 57.5782 14.7593 58.0059 14.4869C58.3462 14.2599 58.6168 13.9712 58.8176 13.6209C58.9051 13.4682 59.0881 13.3892 59.2523 13.4524L60.6173 13.9778C60.8154 14.0541 60.9121 14.2803 60.8142 14.4686C60.4424 15.1838 59.9209 15.754 59.2499 16.1794C58.4853 16.6722 57.6171 16.9186 56.6452 16.9186Z" fill="#242727"/>
<path d="M45.4403 16.9186C44.4678 16.9186 43.5989 16.7046 42.8339 16.2766C42.0817 15.8357 41.4917 15.2326 41.0638 14.4675C40.6359 13.7023 40.4219 12.8205 40.4219 11.8219C40.4219 10.8233 40.6294 9.94145 41.0444 9.17631C41.4723 8.41116 42.0623 7.8146 42.8144 7.38664C43.5665 6.94571 44.4289 6.72524 45.4014 6.72524C46.374 6.72524 47.2363 6.94571 47.9884 7.38664C48.7405 7.8146 49.3241 8.41116 49.739 9.17631C50.1669 9.94145 50.3809 10.8233 50.3809 11.8219C50.3809 12.8205 50.1734 13.7023 49.7585 14.4675C49.3435 15.2326 48.76 15.8357 48.0079 16.2766C47.2558 16.7046 46.3999 16.9186 45.4403 16.9186ZM45.4403 14.9149C45.972 14.9149 46.4453 14.7852 46.8602 14.5259C47.2752 14.2535 47.5994 13.8904 47.8328 13.4365C48.0662 12.9696 48.1829 12.4314 48.1829 11.8219C48.1829 11.2124 48.0597 10.6807 47.8134 10.2268C47.5799 9.75989 47.2558 9.39677 46.8408 9.1374C46.4258 8.86506 45.946 8.72889 45.4014 8.72889C44.8568 8.72889 44.377 8.85858 43.962 9.11795C43.5471 9.37732 43.2229 9.74044 42.9895 10.2073C42.7561 10.6742 42.6393 11.2124 42.6393 11.8219C42.6393 12.4314 42.7561 12.9696 42.9895 13.4365C43.2358 13.8904 43.5665 14.2535 43.9815 14.5259C44.4094 14.7852 44.8957 14.9149 45.4403 14.9149Z" fill="#242727"/>
<path fill-rule="evenodd" clip-rule="evenodd" d="M32.5205 3.32747C33.8296 3.32747 34.9862 3.61344 35.9903 4.18537C37.007 4.74459 37.8014 5.52623 38.3733 6.53028C38.9579 7.53434 39.2503 8.69091 39.2503 9.99999C39.2503 11.2964 38.9579 12.4466 38.3733 13.4506C37.8014 14.4547 37.007 15.2427 35.9903 15.8146C34.9862 16.3865 33.8296 16.6725 32.5205 16.6725H28.5649C28.319 16.6725 28.1196 16.4732 28.1196 16.2273V3.77269C28.1196 3.5268 28.319 3.32747 28.5649 3.32747H32.5205ZM30.3692 14.5753H32.511C33.1286 14.5753 33.7084 14.4618 34.2503 14.235C34.7923 13.9955 35.2649 13.6678 35.6683 13.2518C36.0716 12.8359 36.3867 12.3507 36.6135 11.7961C36.8404 11.2415 36.9538 10.6428 36.9538 9.99999C36.9538 9.35719 36.8404 8.75848 36.6135 8.20391C36.3867 7.64933 36.0716 7.16408 35.6683 6.74815C35.2649 6.33221 34.7923 6.0108 34.2503 5.78393C33.7084 5.54445 33.1286 5.42471 32.511 5.42471H30.3692V14.5753Z" fill="#242727"/>
<path d="M85.0268 6.8433C85.2204 6.82892 85.378 6.98781 85.378 7.18193V8.60013C85.378 8.77595 85.2393 8.91955 85.064 8.93378C84.3575 8.99114 83.8389 9.13824 83.3159 9.39073C82.7183 9.6792 82.2528 10.1135 81.9333 10.4817V16.321C81.9333 16.5152 81.776 16.6725 81.5818 16.6725H80.1173C79.9232 16.6725 79.7658 16.5152 79.7658 16.321V7.32279C79.7658 7.12867 79.9232 6.9713 80.1173 6.9713H81.5818C81.776 6.9713 81.9333 7.12867 81.9333 7.32279V8.52686C82.359 7.98118 82.7505 7.67294 83.3457 7.33864C83.8769 7.04023 84.4463 6.88642 85.0268 6.8433Z" fill="#242727"/>
<path fill-rule="evenodd" clip-rule="evenodd" d="M0.909391 5.92366C1.02477 5.57138 1.39031 5.36566 1.75141 5.44981L7.16884 6.71222C7.5509 6.80125 7.92309 6.5308 7.95631 6.13999L8.4226 0.654475C8.45406 0.284384 8.7637 0 9.13521 0H11.978C12.3496 0 12.6592 0.28444 12.6907 0.654572L13.118 5.68978C13.1369 5.91303 13.0046 6.12176 12.795 6.20121C10.6786 7.00375 9.33332 7.58393 7.75526 8.62317C6.73652 9.29407 5.71383 10.0605 4.81233 10.9178C4.6441 11.0778 4.39767 11.1273 4.18343 11.0378L0.439571 9.47368C0.0954219 9.3299 -0.0804166 8.94583 0.0356516 8.59144L0.909391 5.92366ZM15.639 19.8656C15.3391 20.0811 14.9245 20.0328 14.6821 19.7543L11.9903 16.6609C11.8352 16.4826 11.8038 16.2263 11.927 16.0246C12.6181 14.8938 13.7842 13.7135 14.9235 12.8799C15.1202 12.736 15.3953 12.7968 15.5226 13.0047L18.1292 17.261C18.3247 17.5804 18.2407 17.9965 17.9365 18.2151L15.639 19.8656ZM6.03773 19.8724C6.38802 20.1149 6.87071 19.9986 7.08523 19.6306C10.0642 14.52 14.7325 10.7244 20.5676 9.40061C20.9465 9.31464 21.1784 8.92398 21.0574 8.55481L20.1915 5.91304C20.0859 5.59082 19.7679 5.38596 19.4319 5.4323C12.2258 6.42629 6.07714 10.6282 2.58812 16.6321C2.38671 16.9786 2.49326 17.419 2.8229 17.6471L6.03773 19.8724Z" fill="#00A085"/>
</svg>
